<svg width="120" height="16" viewBox="0 0 120 16" fill="none" xmlns="http://www.w3.org/2000/svg">
<path d="M1.22 14.66C0.98 14.5267 0.846667 14.38 0.82 14.22C0.806667 14.06 0.9 13.78 1.1 13.38C1.3 12.98 1.61333 12.36 2.04 11.52C2.36 10.92 2.57333 10.4533 2.68 10.12C2.8 9.77333 2.86667 9.52667 2.88 9.38C2.89333 9.23333 2.9 9.14 2.9 9.1C2.87333 8.98 2.88667 8.88667 2.94 8.82C2.99333 8.74 3.08 8.67333 3.2 8.62C3.26667 8.55333 3.42 8.43333 3.66 8.26C3.9 8.08667 4.08667 7.88 4.22 7.64C4.34 7.36 4.47333 7.07333 4.62 6.78C4.78 6.48667 4.98667 6.12 5.24 5.68C5.49333 5.22667 5.83333 4.64 6.26 3.92C6.52667 3.45333 6.84 2.92667 7.2 2.34C7.57333 1.75333 7.94 1.22 8.3 0.739999C8.44667 0.553332 8.6 0.406666 8.76 0.299999C8.92 0.193333 9.06 0.14 9.18 0.14C9.47333 0.14 9.76667 0.219999 10.06 0.379999C10.3533 0.526666 10.6133 0.713333 10.84 0.939999C11.0667 1.16667 11.22 1.38 11.3 1.58C11.3667 1.68667 11.3933 1.91333 11.38 2.26C11.3667 2.60667 11.34 3.02667 11.3 3.52C11.26 4.01333 11.2133 4.54 11.16 5.1C11.12 5.64667 11.06 6.29333 10.98 7.04C10.9 7.78667 10.82 8.56667 10.74 9.38C10.6733 10.1933 10.62 10.98 10.58 11.74C10.54 12.4867 10.54 13.14 10.58 13.7C10.5933 13.82 10.5933 13.9333 10.58 14.04C10.5667 14.1467 10.56 14.2333 10.56 14.3C10.48 14.38 10.3067 14.4133 10.04 14.4C9.77333 14.4 9.51333 14.36 9.26 14.28C9.00667 14.2 8.86667 14.1 8.84 13.98C8.8 13.94 8.77333 13.9067 8.76 13.88C8.74667 13.8533 8.74667 13.7267 8.76 13.5C8.77333 13.26 8.79333 12.8267 8.82 12.2L8.92 9.14L8.66 9.16C8.54 9.16 8.32 9.17333 8 9.2C7.69333 9.22667 7.35333 9.26667 6.98 9.32C6.62 9.36 6.28667 9.40667 5.98 9.46C5.67333 9.5 5.46 9.54 5.34 9.58C5.22 9.58 5.07333 9.66 4.9 9.82C4.74 9.98 4.58667 10.1867 4.44 10.44C4.38667 10.6267 4.28667 10.8267 4.14 11.04C4.00667 11.24 3.94 11.3733 3.94 11.44C3.84667 11.5067 3.76667 11.5867 3.7 11.68C3.64667 11.7733 3.62 11.82 3.62 11.82C3.62 11.9 3.56 12.1 3.44 12.42C3.32 12.7267 3.17333 13.0733 3 13.46C2.82667 13.8333 2.64667 14.16 2.46 14.44L1.92 15.2L1.22 14.66ZM6 7.78C6 7.78 6.07333 7.76667 6.22 7.74C6.36667 7.71333 6.54 7.68667 6.74 7.66C6.95333 7.62 7.14 7.6 7.3 7.6C7.60667 7.52 7.86 7.46 8.06 7.42C8.27333 7.38 8.44667 7.36 8.58 7.36C8.71333 7.34667 8.82 7.36 8.9 7.4C8.95333 7.46667 9 7.50667 9.04 7.52C9.09333 7.53333 9.12 7.54 9.12 7.54C9.13333 7.51333 9.16 7.37333 9.2 7.12C9.24 6.86667 9.28667 6.55333 9.34 6.18C9.39333 5.80667 9.44667 5.42 9.5 5.02C9.55333 4.60667 9.6 4.22667 9.64 3.88C9.68 3.52 9.70667 3.24 9.72 3.04C9.73333 2.78667 9.72667 2.56 9.7 2.36C9.67333 2.14667 9.66 2.04 9.66 2.04C9.58 2.04 9.42667 2.18667 9.2 2.48C8.98667 2.76 8.73333 3.14 8.44 3.62C8.16 4.08667 7.88 4.59333 7.6 5.14C7.46667 5.39333 7.34 5.59333 7.22 5.74C7.11333 5.88667 7.02667 5.96 6.96 5.96C6.93333 5.98667 6.86 6.09333 6.74 6.28C6.63333 6.45333 6.51333 6.65333 6.38 6.88C6.26 7.09333 6.15333 7.29333 6.06 7.48C5.98 7.65333 5.96 7.75333 6 7.78ZM17.6948 14.38C17.5215 14.42 17.3482 14.3733 17.1748 14.24C17.0148 14.12 16.9015 13.9867 16.8348 13.84C16.7548 13.6267 16.7015 13.4267 16.6748 13.24C16.6615 13.04 16.6482 12.8133 16.6348 12.56L16.6148 11.88L15.7948 12.62C15.3415 13.0467 14.9148 13.3533 14.5148 13.54C14.1282 13.7133 13.7748 13.8 13.4548 13.8C13.3082 13.7733 13.1282 13.68 12.9148 13.52C12.7148 13.3467 12.5282 13.16 12.3548 12.96C12.1948 12.7467 12.0815 12.5733 12.0148 12.44C11.9348 12.2533 11.9082 11.9933 11.9348 11.66C11.9748 11.3267 12.0548 10.96 12.1748 10.56C12.3082 10.16 12.4682 9.76667 12.6548 9.38C12.8548 8.99333 13.0815 8.66 13.3348 8.38C13.7748 7.71333 14.3215 7.3 14.9748 7.14C15.6282 6.96667 16.2082 7.02 16.7148 7.3C16.9548 7.42 17.1282 7.46667 17.2348 7.44C17.3415 7.41333 17.4082 7.32667 17.4348 7.18C17.4882 6.96667 17.5482 6.76667 17.6148 6.58C17.6815 6.39333 17.7748 6.11333 17.8948 5.74C18.2282 4.72667 18.5148 3.93333 18.7548 3.36C19.0082 2.78667 19.2348 2.28667 19.4348 1.86C19.5815 1.55333 19.7282 1.34 19.8748 1.22C20.0215 1.1 20.1482 1.04667 20.2548 1.06C20.4015 1.06 20.5815 1.11333 20.7948 1.22C21.0215 1.32667 21.1682 1.47333 21.2348 1.66C21.2882 1.78 21.3082 1.90667 21.2948 2.04C21.2948 2.17333 21.2548 2.31333 21.1748 2.46C21.0015 2.78 20.7948 3.20667 20.5548 3.74C20.3282 4.26 20.0948 4.83333 19.8548 5.46C19.6282 6.08667 19.4148 6.70667 19.2148 7.32C19.0148 7.93333 18.8482 8.47333 18.7148 8.94C18.6348 9.23333 18.5682 9.60667 18.5148 10.06C18.4748 10.5133 18.4415 10.98 18.4148 11.46C18.4015 11.9267 18.4015 12.3467 18.4148 12.72C18.4282 13.08 18.4482 13.3133 18.4748 13.42C18.5548 13.6867 18.5548 13.8867 18.4748 14.02C18.3948 14.1533 18.2815 14.24 18.1348 14.28C17.9882 14.3333 17.8415 14.3667 17.6948 14.38ZM14.3948 11.96C14.5815 11.8933 14.7482 11.8133 14.8948 11.72C15.0415 11.6267 15.2148 11.5067 15.4148 11.36C15.8148 11.0533 16.1015 10.7867 16.2748 10.56C16.4615 10.3333 16.6082 10.0533 16.7148 9.72C16.7815 9.52 16.7815 9.34667 16.7148 9.2C16.6615 9.05333 16.5615 8.91333 16.4148 8.78C16.2682 8.66 16.0815 8.61333 15.8548 8.64C15.6282 8.65333 15.3682 8.79333 15.0748 9.06C14.7548 9.35333 14.4815 9.69333 14.2548 10.08C14.0282 10.4667 13.8415 11.02 13.6948 11.74C13.6682 11.8733 13.7148 11.9667 13.8348 12.02C13.9548 12.0733 14.1415 12.0533 14.3948 11.96ZM22.6617 13.48C22.5284 13.5733 22.3617 13.6267 22.1617 13.64C21.9751 13.64 21.8084 13.5667 21.6617 13.42C21.4084 13.18 21.1884 12.7067 21.0017 12C20.8151 11.28 20.7217 10.3067 20.7217 9.08C20.7751 8.53333 20.8017 8.02667 20.8017 7.56C20.8151 7.09333 20.8217 6.83333 20.8217 6.78C20.9684 6.68667 21.1551 6.66 21.3817 6.7C21.6217 6.72667 21.8151 6.77333 21.9617 6.84C22.0951 6.90667 22.1884 7.00667 22.2417 7.14C22.3084 7.27333 22.3484 7.51333 22.3617 7.86C22.3884 8.19333 22.4017 8.70667 22.4017 9.4C22.3617 9.93333 22.3351 10.36 22.3217 10.68C22.3084 11 22.3217 11.1867 22.3617 11.24C22.4151 11.3333 22.4417 11.3867 22.4417 11.4C22.4417 11.4 22.5417 11.3 22.7417 11.1C22.8484 10.9533 22.9617 10.76 23.0817 10.52C23.2151 10.28 23.3284 10.0867 23.4217 9.94C23.5684 9.75333 23.7017 9.57333 23.8217 9.4C23.9551 9.22667 24.0484 9.11333 24.1017 9.06C24.1551 8.95333 24.2217 8.85333 24.3017 8.76C24.3817 8.66667 24.4484 8.57333 24.5017 8.48C24.6484 8.22667 24.8017 8.02 24.9617 7.86C25.1217 7.68667 25.2284 7.6 25.2817 7.6C25.3351 7.64 25.4351 7.63333 25.5817 7.58C25.7284 7.51333 25.8284 7.48 25.8817 7.48C25.9751 7.38667 26.1017 7.38667 26.2617 7.48C26.3151 7.52 26.3617 7.56667 26.4017 7.62C26.4417 7.66 26.4617 7.70667 26.4617 7.76C26.4617 7.82667 26.4217 7.99333 26.3417 8.26C26.2751 8.51333 26.1884 8.76667 26.0817 9.02C25.9884 9.26 25.9084 9.4 25.8417 9.44C25.8417 9.44 25.8217 9.46 25.7817 9.5C25.7417 9.54 25.6951 9.58667 25.6417 9.64C25.6151 9.73333 25.5217 9.90667 25.3617 10.16C25.2151 10.4 25.0284 10.68 24.8017 11C24.5884 11.3067 24.3684 11.6133 24.1417 11.92C23.9151 12.2133 23.7151 12.4733 23.5417 12.7C23.4084 12.8867 23.2551 13.0533 23.0817 13.2C22.9084 13.3333 22.7684 13.4267 22.6617 13.48ZM30.7428 13.6C30.3428 13.8267 29.9161 13.96 29.4628 14C29.0228 14.0267 28.6095 13.9667 28.2228 13.82C27.8361 13.66 27.5228 13.4267 27.2828 13.12C27.1495 12.9467 27.0228 12.6733 26.9028 12.3C26.7828 11.9133 26.7628 11.3933 26.8428 10.74C26.9228 10.1267 27.1095 9.50667 27.4028 8.88C27.7095 8.25333 28.0828 7.7 28.5228 7.22C28.9628 6.74 29.4428 6.41333 29.9628 6.24C30.1495 6.17333 30.3361 6.12667 30.5228 6.1C30.7228 6.06 30.9828 6.05333 31.3028 6.08C31.6095 6.12 31.8828 6.2 32.1228 6.32C32.3628 6.42667 32.5361 6.54667 32.6428 6.68C32.8561 6.89333 32.9961 7.1 33.0628 7.3C33.1295 7.5 33.1561 7.69333 33.1428 7.88C33.0761 8.30667 32.8828 8.76667 32.5628 9.26C32.2561 9.75333 31.8228 10.12 31.2628 10.36C31.0361 10.4533 30.7695 10.5133 30.4628 10.54C30.1561 10.5667 29.7361 10.5267 29.2028 10.42C28.8828 10.3533 28.6695 10.3867 28.5628 10.52C28.4695 10.6533 28.4295 10.9133 28.4428 11.3C28.4695 11.54 28.5228 11.7533 28.6028 11.94C28.6961 12.1133 28.8628 12.2333 29.1028 12.3C29.4095 12.3533 29.6295 12.36 29.7628 12.32C29.8961 12.2667 30.0628 12.1933 30.2628 12.1C30.3695 12.0333 30.4695 11.96 30.5628 11.88C30.6695 11.8 30.7695 11.72 30.8628 11.64C30.9695 11.56 31.0561 11.5 31.1228 11.46C31.1895 11.4067 31.2561 11.3733 31.3228 11.36C31.3895 11.3467 31.4561 11.34 31.5228 11.34C31.6695 11.3533 31.8095 11.4333 31.9428 11.58C32.0761 11.7267 32.1628 11.8667 32.2028 12C32.2028 12.1067 32.1361 12.26 32.0028 12.46C31.8695 12.6467 31.6895 12.8467 31.4628 13.06C31.2495 13.26 31.0095 13.44 30.7428 13.6ZM30.4828 9.14C30.5761 9.1 30.7095 9.00667 30.8828 8.86C31.0695 8.71333 31.2361 8.56 31.3828 8.4C31.5295 8.22667 31.6028 8.09333 31.6028 8C31.6028 7.85333 31.5028 7.72667 31.3028 7.62C31.1161 7.51333 30.8695 7.49333 30.5628 7.56C30.4561 7.58667 30.3295 7.66 30.1828 7.78C30.0361 7.9 29.8895 8.04 29.7428 8.2C29.5961 8.34667 29.4695 8.49333 29.3628 8.64C29.2561 8.77333 29.1828 8.88 29.1428 8.96C29.1961 9.02667 29.3028 9.08 29.4628 9.12C29.6228 9.16 29.7961 9.18 29.9828 9.18C30.1828 9.18 30.3495 9.16667 30.4828 9.14ZM34.1625 13.7C34.0692 13.7 33.9425 13.6333 33.7825 13.5C33.6358 13.3667 33.5492 13.2467 33.5225 13.14C33.4825 13.0333 33.4825 12.88 33.5225 12.68C33.5758 12.4667 33.6492 12.22 33.7425 11.94C33.8492 11.5 33.9225 11.18 33.9625 10.98C34.0025 10.78 34.0425 10.6067 34.0825 10.46C34.1225 10.3133 34.1758 10.1 34.2425 9.82C34.3225 9.64667 34.3825 9.48 34.4225 9.32C34.4758 9.14667 34.5292 8.97333 34.5825 8.8C34.6492 8.62667 34.7225 8.45333 34.8025 8.28C34.8958 7.93333 35.0092 7.60667 35.1425 7.3C35.2892 6.98 35.4292 6.71333 35.5625 6.5C35.5892 6.46 35.6492 6.38667 35.7425 6.28C35.8358 6.17333 35.9092 6.12 35.9625 6.12C36.0692 6.01333 36.2158 5.98 36.4025 6.02C36.5892 6.04667 36.7492 6.11333 36.8825 6.22C37.0425 6.39333 37.1292 6.6 37.1425 6.84C37.1692 7.06667 37.0758 7.38667 36.8625 7.8C36.7025 8.21333 36.5492 8.54 36.4025 8.78C36.2692 9.00667 36.1358 9.27333 36.0025 9.58C36.1492 9.36667 36.3292 9.14667 36.5425 8.92C36.7558 8.69333 36.9225 8.51333 37.0425 8.38C37.2158 8.19333 37.3758 8.04667 37.5225 7.94C37.6825 7.82 37.8958 7.67333 38.1625 7.5C38.3892 7.34 38.6158 7.19333 38.8425 7.06C39.0825 6.92667 39.3692 6.88667 39.7025 6.94C39.8358 6.92667 39.9758 6.99333 40.1225 7.14C40.2825 7.28667 40.4025 7.48 40.4825 7.72C40.5758 7.94667 40.5758 8.19333 40.4825 8.46C40.1758 8.39333 39.9025 8.40667 39.6625 8.5C39.4225 8.58 39.2158 8.68 39.0425 8.8C38.8825 8.92 38.7558 9.01333 38.6625 9.08C38.5292 9.16 38.3758 9.26667 38.2025 9.4C38.0292 9.52 37.8425 9.66 37.6425 9.82C37.4425 9.96667 37.2292 10.1333 37.0025 10.32C36.6825 10.5867 36.4425 10.82 36.2825 11.02C36.1225 11.22 35.9958 11.4333 35.9025 11.66C35.8225 11.86 35.7225 12.1 35.6025 12.38C35.4825 12.66 35.3692 12.9133 35.2625 13.14C35.1558 13.3533 35.0692 13.4867 35.0025 13.54C34.9358 13.6733 34.7958 13.7467 34.5825 13.76C34.3825 13.7733 34.2425 13.7533 34.1625 13.7ZM42.1895 14.02C42.0429 13.9933 41.8829 13.9067 41.7095 13.76C41.5362 13.6 41.3762 13.4267 41.2295 13.24C41.0962 13.04 41.0095 12.8733 40.9695 12.74C40.9695 12.7133 40.9495 12.68 40.9095 12.64C40.8829 12.6 40.8695 12.58 40.8695 12.58C40.8162 12.54 40.7829 12.3667 40.7695 12.06C40.7695 11.74 40.7895 11.3867 40.8295 11C40.8695 10.6133 40.9162 10.3067 40.9695 10.08C41.0362 9.86667 41.1362 9.58 41.2695 9.22C41.4029 8.84667 41.5162 8.51333 41.6095 8.22L42.1495 7.06L41.3495 6.84C41.2562 6.81333 41.1762 6.76 41.1095 6.68C41.0562 6.6 41.0295 6.53333 41.0295 6.48C41.0295 6.37333 41.0895 6.22 41.2095 6.02C41.3295 5.82 41.4162 5.72 41.4695 5.72C41.5362 5.73333 41.6562 5.74 41.8295 5.74C42.0162 5.74 42.1962 5.73333 42.3695 5.72C42.5429 5.70667 42.6495 5.69333 42.6895 5.68C42.7429 5.65333 42.7962 5.62 42.8495 5.58C42.9029 5.52667 42.9429 5.45333 42.9695 5.36C43.0362 5.21333 43.0962 5.1 43.1495 5.02C43.2029 4.94 43.2762 4.82 43.3695 4.66C43.4629 4.48667 43.5362 4.34 43.5895 4.22C43.6562 4.1 43.7562 3.93333 43.8895 3.72C43.9562 3.62667 44.0295 3.51333 44.1095 3.38C44.1895 3.24667 44.2895 3.13333 44.4095 3.04C44.5295 2.93333 44.7229 2.86 44.9895 2.82C45.2695 2.76667 45.5095 2.82667 45.7095 3C45.8162 3.13333 45.8762 3.26 45.8895 3.38C45.9029 3.5 45.8495 3.65333 45.7295 3.84C45.6229 4.06667 45.4962 4.27333 45.3495 4.46C45.2162 4.63333 45.0895 4.83333 44.9695 5.06C44.7562 5.35333 44.7162 5.52 44.8495 5.56C44.9829 5.6 45.3562 5.57333 45.9695 5.48C46.3562 5.41333 46.6362 5.45333 46.8095 5.6C46.9829 5.74667 47.0829 5.93333 47.1095 6.16C47.1495 6.48 47.1162 6.67333 47.0095 6.74C46.9029 6.80667 46.5962 6.84 46.0895 6.84C45.7695 6.89333 45.4962 6.92667 45.2695 6.94C45.0429 6.94 44.8762 6.94 44.7695 6.94C44.5962 6.95333 44.4829 6.96 44.4295 6.96C44.3762 6.96 44.2962 6.97333 44.1895 7C44.0829 7.02667 44.0029 7.07333 43.9495 7.14C43.9095 7.19333 43.8629 7.27333 43.8095 7.38C43.7562 7.43333 43.6762 7.57333 43.5695 7.8C43.4629 8.02667 43.3295 8.27333 43.1695 8.54C42.9829 9.1 42.8229 9.64 42.6895 10.16C42.5695 10.6667 42.4629 11.1733 42.3695 11.68C42.3295 11.9333 42.3362 12.12 42.3895 12.24C42.4562 12.3467 42.6295 12.4133 42.9095 12.44C43.0562 12.4533 43.2695 12.4533 43.5495 12.44C43.8295 12.4133 44.0629 12.3733 44.2495 12.32C44.3962 12.2533 44.5495 12.1867 44.7095 12.12C44.8695 12.04 45.0162 11.96 45.1495 11.88C45.2695 11.8133 45.3895 11.7467 45.5095 11.68C45.6295 11.6 45.6895 11.56 45.6895 11.56C45.7562 11.4533 45.8495 11.4733 45.9695 11.62C46.1029 11.7533 46.1962 11.9 46.2495 12.06C46.2495 12.22 46.2162 12.4133 46.1495 12.64C46.0829 12.8533 45.8362 13.08 45.4095 13.32C44.8095 13.6933 44.2095 13.92 43.6095 14C43.0095 14.08 42.5362 14.0867 42.1895 14.02ZM48.8106 13.98C48.4906 13.98 48.2106 13.8133 47.9706 13.48C47.744 13.1333 47.604 12.72 47.5506 12.24C47.564 12.1333 47.5773 11.98 47.5906 11.78C47.6173 11.58 47.644 11.3733 47.6706 11.16C47.724 10.9067 47.7973 10.58 47.8906 10.18C47.984 9.78 48.084 9.38 48.1906 8.98C48.2973 8.56667 48.3906 8.21333 48.4706 7.92C48.5506 7.61333 48.5973 7.43333 48.6106 7.38C48.6906 7.19333 48.8706 7.14667 49.1506 7.24C49.4306 7.33333 49.6706 7.53333 49.8706 7.84C49.9506 7.94667 49.9973 8.07333 50.0106 8.22C50.0373 8.36667 50.0173 8.58 49.9506 8.86C49.8973 9.14 49.7906 9.55333 49.6306 10.1C49.484 10.6333 49.3706 11.0667 49.2906 11.4C49.224 11.72 49.1973 12.06 49.2106 12.42C49.1573 13.0333 49.104 13.4533 49.0506 13.68C48.9973 13.8933 48.9173 13.9933 48.8106 13.98ZM50.6506 5.68C50.5973 5.72 50.544 5.74 50.4906 5.74C50.4506 5.72667 50.3773 5.68667 50.2706 5.62C50.1773 5.60667 50.0573 5.54667 49.9106 5.44C49.7773 5.32 49.6573 5.2 49.5506 5.08C49.4573 4.96 49.4106 4.88667 49.4106 4.86C49.3973 4.72667 49.404 4.51333 49.4306 4.22C49.4706 3.92667 49.544 3.65333 49.6506 3.4C49.7706 3.13333 49.9306 2.99333 50.1306 2.98C50.184 2.98 50.2973 3.00667 50.4706 3.06C50.6573 3.11333 50.8506 3.18 51.0506 3.26C51.1573 3.46 51.2573 3.72 51.3506 4.04C51.444 4.36 51.4506 4.67333 51.3706 4.98C51.304 5.27333 51.064 5.50667 50.6506 5.68ZM53.1964 14.12C52.7697 14.12 52.3764 14.0267 52.0164 13.84C51.6697 13.64 51.3897 13.4 51.1764 13.12C50.9631 12.8267 50.8564 12.5467 50.8564 12.28C50.8564 12.16 50.8764 12.0733 50.9164 12.02C50.9697 11.9667 51.0431 11.94 51.1364 11.94C51.2031 11.9533 51.2831 11.9867 51.3764 12.04C51.4697 12.0933 51.5631 12.1533 51.6564 12.22C51.8697 12.3667 52.1031 12.46 52.3564 12.5C52.6097 12.54 52.8364 12.5267 53.0364 12.46C53.2364 12.38 53.3497 12.26 53.3764 12.1C53.3764 12.0467 53.3497 11.9333 53.2964 11.76C53.2431 11.5867 53.1764 11.42 53.0964 11.26C52.7631 10.7667 52.5564 10.3 52.4764 9.86C52.3964 9.40667 52.3431 8.95333 52.3164 8.5C52.3164 8.31333 52.4031 8.10667 52.5764 7.88C52.7497 7.64 52.9631 7.40667 53.2164 7.18C53.4964 6.94 53.8031 6.71333 54.1364 6.5C54.4831 6.28667 54.8231 6.10667 55.1564 5.96C55.4897 5.81333 55.7697 5.72667 55.9964 5.7C56.2364 5.7 56.4897 5.71333 56.7564 5.74C57.0364 5.75333 57.2231 5.8 57.3164 5.88C57.5031 6.02667 57.6764 6.26667 57.8364 6.6C57.9964 6.93333 58.0764 7.21333 58.0764 7.44C58.0764 7.54667 58.0164 7.68 57.8964 7.84C57.7897 7.98667 57.6897 8.15333 57.5964 8.34C57.5431 8.43333 57.4964 8.53333 57.4564 8.64C57.4164 8.74667 57.3697 8.85333 57.3164 8.96C57.2364 9.14667 57.0897 9.22667 56.8764 9.2C56.6764 9.16 56.4897 9.05333 56.3164 8.88C56.1431 8.69333 56.0564 8.48 56.0564 8.24C56.0564 8.04 56.1164 7.86667 56.2364 7.72C56.3564 7.57333 56.4164 7.47333 56.4164 7.42C56.4164 7.39333 56.4031 7.37333 56.3764 7.36C56.3497 7.34667 56.3031 7.34 56.2364 7.34C56.1431 7.34 55.9897 7.38 55.7764 7.46C55.5764 7.52667 55.3631 7.62667 55.1364 7.76C54.9097 7.89333 54.7031 8.05333 54.5164 8.24C54.3831 8.38667 54.2697 8.54667 54.1764 8.72C54.0964 8.88 54.0564 9.05333 54.0564 9.24C54.0564 9.42667 54.0897 9.64667 54.1564 9.9C54.2364 10.14 54.3231 10.34 54.4164 10.5C54.4431 10.5267 54.4831 10.6 54.5364 10.72C54.6031 10.8267 54.6764 10.96 54.7564 11.12C55.2497 12.1333 55.3297 12.8867 54.9964 13.38C54.6764 13.8733 54.0764 14.12 53.1964 14.12ZM59.6486 13.82C59.1286 13.6067 58.7686 13.26 58.5686 12.78C58.3686 12.3 58.3153 11.66 58.4086 10.86C58.4353 10.4467 58.4219 10.1733 58.3686 10.04C58.3153 9.89333 58.2153 9.75333 58.0686 9.62C58.0286 9.56667 57.9353 9.48 57.7886 9.36C57.6419 9.22667 57.5753 9.12667 57.5886 9.06C57.5753 8.96667 57.5953 8.85333 57.6486 8.72C57.7019 8.57333 57.7486 8.49333 57.7886 8.48C57.8819 8.44 57.9753 8.39333 58.0686 8.34C58.1753 8.28667 58.2553 8.27333 58.3086 8.3C58.3619 8.3 58.4419 8.33333 58.5486 8.4C58.6686 8.46667 58.7286 8.52667 58.7286 8.58C58.7819 8.67333 58.8619 8.63333 58.9686 8.46C59.0886 8.28667 59.2153 8.06667 59.3486 7.8C59.4819 7.58667 59.6486 7.38667 59.8486 7.2C60.0486 7.01333 60.2486 6.84667 60.4486 6.7C60.6619 6.54 60.8419 6.42 60.9886 6.34C61.0553 6.31333 61.1819 6.27333 61.3686 6.22C61.5686 6.16667 61.7753 6.12667 61.9886 6.1C62.2019 6.06 62.3619 6.04667 62.4686 6.06C62.7086 6.07333 62.9619 6.17333 63.2286 6.36C63.4953 6.54667 63.7019 6.72 63.8486 6.88C64.0219 7 64.1353 7.18667 64.1886 7.44C64.2553 7.68 64.2819 7.93333 64.2686 8.2C64.2553 8.46667 64.2019 8.69333 64.1086 8.88C64.0686 9.01333 63.9286 9.2 63.6886 9.44C63.4486 9.68 63.1819 9.91333 62.8886 10.14C62.6086 10.3533 62.3686 10.5 62.1686 10.58C61.9953 10.62 61.7886 10.6533 61.5486 10.68C61.3086 10.6933 61.0819 10.6933 60.8686 10.68C60.6686 10.6533 60.5286 10.62 60.4486 10.58C60.3553 10.5267 60.2753 10.5467 60.2086 10.64C60.1553 10.72 60.1086 10.9467 60.0686 11.32C60.0553 11.4667 60.0553 11.5933 60.0686 11.7C60.0953 11.8067 60.1219 11.8867 60.1486 11.94C60.2419 12.1 60.3353 12.22 60.4286 12.3C60.5219 12.3667 60.6953 12.3867 60.9486 12.36C61.2019 12.3333 61.4553 12.18 61.7086 11.9C61.9753 11.6067 62.2153 11.3733 62.4286 11.2C62.4819 11.1067 62.5953 11.0467 62.7686 11.02C62.9553 10.98 63.1753 10.9933 63.4286 11.06C63.5753 11.1533 63.6419 11.3 63.6286 11.5C63.6286 11.7 63.5219 11.9933 63.3086 12.38C63.2686 12.4733 63.1553 12.6133 62.9686 12.8C62.7953 12.9733 62.6019 13.1533 62.3886 13.34C62.1886 13.5133 62.0219 13.64 61.8886 13.72C61.4886 13.9333 61.0953 14.0333 60.7086 14.02C60.3219 14.0067 59.9686 13.94 59.6486 13.82ZM61.1286 9.32C61.3286 9.26667 61.4953 9.21333 61.6286 9.16C61.7753 9.10667 61.9153 9.02 62.0486 8.9C62.1819 8.78 62.3353 8.6 62.5086 8.36C62.5619 8.21333 62.5886 8.08667 62.5886 7.98C62.6019 7.87333 62.5953 7.80667 62.5686 7.78C62.4619 7.67333 62.3419 7.64 62.2086 7.68C62.0886 7.70667 61.9553 7.77333 61.8086 7.88C61.7153 7.92 61.5819 8.00667 61.4086 8.14C61.2486 8.26 61.0886 8.4 60.9286 8.56C60.7819 8.70667 60.6619 8.84667 60.5686 8.98C60.4886 9.1 60.4753 9.17333 60.5286 9.2C60.5019 9.25333 60.5753 9.28667 60.7486 9.3C60.9353 9.31333 61.0619 9.32 61.1286 9.32ZM71.452 14.82C71.3587 14.6733 71.1987 14.58 70.972 14.54C70.7454 14.5 70.3987 14.4933 69.932 14.52C69.7454 14.5467 69.552 14.5333 69.352 14.48C69.152 14.4267 68.992 14.3467 68.872 14.24C68.752 14.1333 68.7054 14.0267 68.732 13.92C68.7454 13.76 68.932 13.5867 69.292 13.4C69.652 13.2133 70.1187 13.1133 70.692 13.1L71.532 13.08L71.732 12.68C71.7854 12.5333 71.8254 12.3733 71.852 12.2C71.892 12.0267 71.9587 11.7867 72.052 11.48C72.1054 11.2933 72.1854 11.0333 72.292 10.7C72.3987 10.3667 72.512 10.0133 72.632 9.64C72.752 9.25333 72.8587 8.90667 72.952 8.6C73.0454 8.29333 73.1054 8.08 73.132 7.96C73.1854 7.84 73.2587 7.64 73.352 7.36C73.4454 7.06667 73.532 6.77333 73.612 6.48C73.7054 6.17333 73.7654 5.95333 73.792 5.82C74.1387 4.76667 74.3654 4.03333 74.472 3.62C74.5787 3.19333 74.6054 2.97333 74.552 2.96C74.4987 2.96 74.372 2.96667 74.172 2.98C73.972 2.99333 73.752 3.01333 73.512 3.04C73.272 3.05333 73.0587 3.07333 72.872 3.1C72.6854 3.12667 72.572 3.15333 72.532 3.18C72.4654 3.27333 72.352 3.26 72.192 3.14C72.032 3.00667 71.932 2.87333 71.892 2.74C71.8787 2.62 71.8787 2.50667 71.892 2.4C71.9054 2.29333 71.9454 2.22 72.012 2.18C72.1054 2.1 72.2987 2.01333 72.592 1.92C72.8854 1.81333 73.212 1.72 73.572 1.64C73.9454 1.56 74.2854 1.5 74.592 1.46C74.8187 1.43333 75.0454 1.38667 75.272 1.32C75.4987 1.24 75.6787 1.14667 75.812 1.04C75.932 1 76.0454 0.966666 76.152 0.939999C76.272 0.913333 76.392 0.906666 76.512 0.919999C76.6187 0.986666 76.7987 1.02 77.052 1.02C77.3187 1.02 77.5987 1.01333 77.892 0.999999C78.6387 0.933333 79.1587 0.959999 79.452 1.08C79.7587 1.18667 79.9587 1.33333 80.052 1.52C80.1187 1.77333 80.1054 1.98667 80.012 2.16C79.9187 2.32 79.7587 2.39333 79.532 2.38C79.412 2.40667 79.2454 2.43333 79.032 2.46C78.8187 2.47333 78.5387 2.48667 78.192 2.5C77.312 2.58 76.8387 2.67333 76.772 2.78C76.7187 2.83333 76.672 2.88667 76.632 2.94C76.6054 2.99333 76.5654 3.05333 76.512 3.12C76.5254 3.17333 76.492 3.33333 76.412 3.6C76.3454 3.85333 76.2587 4.12667 76.152 4.42C76.0987 4.59333 76.0187 4.84 75.912 5.16C75.8054 5.48 75.692 5.81333 75.572 6.16C75.4654 6.49333 75.3654 6.8 75.272 7.08C75.1787 7.34667 75.112 7.52667 75.072 7.62C75.0187 7.74 74.972 7.87333 74.932 8.02C74.9054 8.15333 74.8854 8.25333 74.872 8.32C74.6854 8.97333 74.5254 9.52 74.392 9.96C74.272 10.4 74.1654 10.7867 74.072 11.12C73.9787 11.44 73.892 11.7533 73.812 12.06C73.732 12.3533 73.6387 12.6867 73.532 13.06C73.532 13.06 73.6454 13.0533 73.872 13.04C74.0987 13.0133 74.3854 12.9867 74.732 12.96C75.3587 12.8933 75.7854 12.8533 76.012 12.84C76.2387 12.8267 76.372 12.8467 76.412 12.9C76.452 12.94 76.492 13.02 76.532 13.14C76.7987 13.5 76.7787 13.8 76.472 14.04C76.1787 14.28 75.6587 14.3933 74.912 14.38C74.2187 14.4067 73.7054 14.4267 73.372 14.44C73.052 14.4667 72.8454 14.5 72.752 14.54C72.6587 14.58 72.612 14.6467 72.612 14.74C72.6254 14.9533 72.492 15.08 72.212 15.12C71.9454 15.1733 71.692 15.0733 71.452 14.82ZM79.0556 13.32C79.0023 13.32 78.8756 13.2733 78.6756 13.18C78.4756 13.0733 78.349 12.9933 78.2956 12.94C78.2023 12.8333 78.1423 12.72 78.1156 12.6C78.089 12.4667 78.0756 12.2133 78.0756 11.84C78.0756 11.4133 78.1623 10.9333 78.3356 10.4C78.509 9.85333 78.8023 9.12667 79.2156 8.22L80.0356 6.56C80.1023 6.46667 80.1623 6.38667 80.2156 6.32C80.269 6.24 80.329 6.16667 80.3956 6.1C80.4223 6.1 80.4556 6.1 80.4956 6.1C80.549 6.1 80.589 6.10667 80.6156 6.12C80.7356 6.13333 80.9223 6.20667 81.1756 6.34C81.4423 6.47333 81.6023 6.67333 81.6556 6.94C81.6556 7.11333 81.629 7.32 81.5756 7.56C81.5223 7.78667 81.3623 8.08667 81.0956 8.46C80.989 8.59333 80.8823 8.78667 80.7756 9.04C80.6823 9.29333 80.5956 9.53333 80.5156 9.76C80.5023 9.78667 80.4623 9.85333 80.3956 9.96C80.3423 10.0533 80.289 10.1533 80.2356 10.26C80.1823 10.3533 80.1556 10.4133 80.1556 10.44L80.0756 10.62L80.9356 9.78C81.5356 9.18 82.0423 8.75333 82.4556 8.5C82.869 8.24667 83.2156 8.14 83.4956 8.18C83.789 8.22 84.0223 8.38667 84.1956 8.68C84.289 8.81333 84.3556 8.96 84.3956 9.12C84.4356 9.26667 84.4623 9.44 84.4756 9.64C84.489 9.84 84.4823 10.0933 84.4556 10.4V11.54C84.709 11.4733 84.9023 11.42 85.0356 11.38C85.169 11.3267 85.3023 11.28 85.4356 11.24C85.5423 11.2133 85.649 11.1867 85.7556 11.16C85.8756 11.1333 86.0223 11.1133 86.1956 11.1C86.1823 11.2733 86.109 11.4867 85.9756 11.74C85.8423 11.9933 85.6756 12.2467 85.4756 12.5C85.289 12.7533 85.0823 12.9667 84.8556 13.14C84.6423 13.3133 84.4423 13.4 84.2556 13.4C84.0823 13.4 83.8823 13.3467 83.6556 13.24C83.429 13.12 83.2356 12.8933 83.0756 12.56C83.0223 12.3867 82.969 12.1867 82.9156 11.96C82.8623 11.7333 82.8356 11.4933 82.8356 11.24V10.36C82.8356 10.28 82.829 10.2267 82.8156 10.2C82.8156 10.16 82.809 10.14 82.7956 10.14C82.7423 10.14 82.569 10.28 82.2756 10.56C81.9956 10.84 81.709 11.1333 81.4156 11.44C80.8023 12.08 80.289 12.5533 79.8756 12.86C79.4756 13.1667 79.2023 13.32 79.0556 13.32ZM88.2553 14.12C87.802 13.9333 87.4686 13.74 87.2553 13.54C87.0553 13.3267 86.9753 13.14 87.0153 12.98C87.042 12.9 87.0886 12.8267 87.1553 12.76C87.222 12.6933 87.3686 12.6667 87.5953 12.68C87.8353 12.68 88.202 12.74 88.6953 12.86C88.842 12.86 88.9886 12.8533 89.1353 12.84C89.282 12.8267 89.4153 12.8067 89.5353 12.78C89.6686 12.7533 89.7753 12.72 89.8553 12.68C89.922 12.6533 89.942 12.62 89.9153 12.58C89.8886 12.5267 89.842 12.4733 89.7753 12.42C89.722 12.3533 89.662 12.3133 89.5953 12.3C89.5286 12.2733 89.4686 12.26 89.4153 12.26C89.3886 12.1933 89.3286 12.1267 89.2353 12.06C89.1553 11.9933 89.0553 11.92 88.9353 11.84C88.642 11.6 88.3753 11.3867 88.1353 11.2C87.8953 11.0133 87.802 10.8733 87.8553 10.78C87.8553 10.7267 87.8553 10.7 87.8553 10.7C87.8553 10.6867 87.8553 10.68 87.8553 10.68C87.762 10.68 87.6753 10.5533 87.5953 10.3C87.5153 10.0333 87.4753 9.79333 87.4753 9.58C87.4753 9.31333 87.5286 9.04667 87.6353 8.78C87.7553 8.51333 87.902 8.26 88.0753 8.02C88.262 7.78 88.4486 7.56667 88.6353 7.38C88.8886 7.14 89.1553 6.90667 89.4353 6.68C89.7286 6.44 90.042 6.22667 90.3753 6.04C90.722 5.85333 91.102 5.70667 91.5153 5.6C91.702 5.56 91.9153 5.54 92.1553 5.54C92.3953 5.54 92.5686 5.57333 92.6753 5.64C92.782 5.57333 92.9153 5.59333 93.0753 5.7C93.2353 5.79333 93.3953 5.92667 93.5553 6.1C93.7153 6.27333 93.8353 6.44667 93.9153 6.62C93.9153 6.78 93.9086 6.98 93.8953 7.22C93.8953 7.44667 93.882 7.64667 93.8553 7.82C93.8286 7.99333 93.7686 8.08 93.6753 8.08C93.6753 8.08 93.6553 8.08667 93.6153 8.1C93.5886 8.1 93.5753 8.13333 93.5753 8.2C93.5753 8.33333 93.4753 8.48667 93.2753 8.66C93.022 8.83333 92.782 8.97333 92.5553 9.08C92.3286 9.18667 92.1553 9.19333 92.0353 9.1C91.9553 9.04667 91.882 8.99333 91.8153 8.94C91.7486 8.88667 91.6886 8.82 91.6353 8.74C91.6353 8.74 91.6153 8.71333 91.5753 8.66C91.5486 8.59333 91.5353 8.53333 91.5353 8.48C91.5353 8.42667 91.5553 8.38 91.5953 8.34C91.6353 8.28667 91.6553 8.26 91.6553 8.26C91.842 8.08667 91.982 7.92667 92.0753 7.78C92.182 7.63333 92.2553 7.50667 92.2953 7.4C92.3353 7.28 92.3553 7.18667 92.3553 7.12C92.3553 7.04 92.3353 6.99333 92.2953 6.98C92.2686 6.95333 92.202 6.94 92.0953 6.94C92.0286 6.94 91.882 6.99333 91.6553 7.1C91.442 7.20667 91.2153 7.34 90.9753 7.5C90.7353 7.64667 90.5486 7.78 90.4153 7.9C90.362 7.99333 90.322 8.05333 90.2953 8.08C90.282 8.10667 90.2486 8.12 90.1953 8.12C90.1953 8.06667 90.162 8.07333 90.0953 8.14C90.0286 8.20667 89.9486 8.3 89.8553 8.42C89.762 8.54 89.6686 8.66667 89.5753 8.8C89.482 8.93333 89.4086 9.04 89.3553 9.12C89.342 9.24 89.3086 9.35333 89.2553 9.46C89.2153 9.55333 89.202 9.65333 89.2153 9.76C89.2286 9.89333 89.2953 10.02 89.4153 10.14C89.5353 10.26 89.7086 10.4133 89.9353 10.6C90.402 10.9467 90.7486 11.22 90.9753 11.42C91.2153 11.62 91.382 11.78 91.4753 11.9C91.5686 12.02 91.6286 12.14 91.6553 12.26C91.882 12.6733 91.9086 13.0333 91.7353 13.34C91.562 13.6333 91.2953 13.86 90.9353 14.02C90.802 14.0867 90.5686 14.1467 90.2353 14.2C89.902 14.2667 89.5486 14.2933 89.1753 14.28C88.8153 14.28 88.5086 14.2267 88.2553 14.12ZM94.2475 13.66C94.1408 13.5533 94.0608 13.3933 94.0075 13.18C93.9675 12.9667 93.9542 12.76 93.9675 12.56C93.9808 12.3467 94.0142 12.1867 94.0675 12.08C94.0675 11.9733 94.0808 11.8933 94.1075 11.84C94.1475 11.7733 94.1608 11.7133 94.1475 11.66C94.1342 11.6067 94.1475 11.5133 94.1875 11.38C94.2275 11.2467 94.2675 11.12 94.3075 11C94.4008 10.7867 94.5075 10.5133 94.6275 10.18C94.7475 9.83333 94.8675 9.48667 94.9875 9.14C95.1075 8.78 95.2075 8.47333 95.2875 8.22C95.3675 7.95333 95.4142 7.79333 95.4275 7.74C95.4275 7.58 95.5342 7.49333 95.7475 7.48C95.9075 7.42667 96.1008 7.49333 96.3275 7.68C96.5542 7.86667 96.7342 8.06667 96.8675 8.28C96.9742 8.38667 97.0142 8.52667 96.9875 8.7C96.9608 8.87333 96.8742 9.12 96.7275 9.44C96.6742 9.54667 96.6075 9.72667 96.5275 9.98C96.4608 10.22 96.4142 10.42 96.3875 10.58C96.3342 10.6867 96.2675 10.84 96.1875 11.04C96.1208 11.2267 96.0608 11.4067 96.0075 11.58C95.9808 11.6467 95.9542 11.7733 95.9275 11.96C95.9008 12.1333 95.8675 12.3133 95.8275 12.5C95.7875 12.6867 95.7342 12.8333 95.6675 12.94C95.5475 13.4867 95.3342 13.8067 95.0275 13.9C94.7342 13.9933 94.4742 13.9133 94.2475 13.66ZM96.4075 5.64C96.2608 5.53333 96.1475 5.40667 96.0675 5.26C96.0008 5.1 95.9608 4.96 95.9475 4.84C95.9475 4.72 95.9608 4.64667 95.9875 4.62C96.1208 4.47333 96.2342 4.28 96.3275 4.04C96.4342 3.8 96.5475 3.58 96.6675 3.38C96.6942 3.34 96.7275 3.28667 96.7675 3.22C96.8208 3.14 96.8742 3.09333 96.9275 3.08C97.0875 2.97333 97.3075 2.98 97.5875 3.1C97.8808 3.22 98.0942 3.38667 98.2275 3.6C98.3475 3.85333 98.3808 4.11333 98.3275 4.38C98.2875 4.64667 98.1475 4.92667 97.9075 5.22C97.7075 5.48667 97.4542 5.66 97.1475 5.74C96.8408 5.80667 96.5942 5.77333 96.4075 5.64ZM103.853 13.98C103.653 13.9933 103.467 14 103.293 14C103.133 14 103.007 13.9733 102.913 13.92C102.673 13.72 102.513 13.56 102.433 13.44C102.367 13.32 102.333 13.1867 102.333 13.04C102.347 12.8533 102.353 12.6667 102.353 12.48C102.353 12.28 102.353 12.1267 102.353 12.02C102.3 11.9667 102.193 12.0267 102.033 12.2C101.873 12.3733 101.687 12.54 101.473 12.7C101.06 13.1667 100.693 13.5067 100.373 13.72C100.053 13.92 99.7599 14.0333 99.4933 14.06C99.2266 14.1 98.9599 14.1067 98.6933 14.08C98.4533 14.0533 98.2399 13.9333 98.0533 13.72C97.8799 13.5067 97.7466 13.2467 97.6533 12.94C97.5733 12.6333 97.5466 12.3333 97.5733 12.04C97.6399 11.4933 97.7599 11 97.9333 10.56C98.1066 10.1067 98.3666 9.63333 98.7133 9.14C98.8733 8.92667 99.0866 8.69333 99.3533 8.44C99.6333 8.18667 99.9333 7.95333 100.253 7.74C100.573 7.51333 100.86 7.35333 101.113 7.26C101.5 7.08667 101.82 7.00667 102.073 7.02C102.34 7.03333 102.6 7.07333 102.853 7.14C103.04 7.23333 103.187 7.28 103.293 7.28C103.413 7.28 103.5 7.21333 103.553 7.08C103.633 6.97333 103.693 6.84 103.733 6.68C103.773 6.52 103.84 6.36667 103.933 6.22L104.373 4.92C104.52 4.56 104.693 4.14667 104.893 3.68C105.093 3.21333 105.32 2.69333 105.573 2.12C105.88 1.6 106.14 1.32667 106.353 1.3C106.58 1.27333 106.813 1.39333 107.053 1.66C107.213 1.82 107.3 2.02 107.313 2.26C107.34 2.48667 107.28 2.75333 107.133 3.06C107.04 3.20667 106.94 3.39333 106.833 3.62C106.727 3.83333 106.6 4.08667 106.453 4.38C106.307 4.72667 106.153 5.07333 105.993 5.42C105.847 5.76667 105.693 6.14667 105.533 6.56C105.48 6.77333 105.407 7.02 105.313 7.3C105.233 7.58 105.167 7.83333 105.113 8.06C105.073 8.27333 105.027 8.47333 104.973 8.66C104.933 8.83333 104.887 8.92 104.833 8.92C104.727 9.01333 104.627 9.21333 104.533 9.52C104.44 9.81333 104.36 10.1267 104.293 10.46C104.24 10.7933 104.193 11.0667 104.153 11.28C104.127 11.44 104.107 11.6667 104.093 11.96C104.08 12.24 104.073 12.5133 104.073 12.78C104.073 13.0333 104.073 13.2067 104.073 13.3C104.073 13.5533 104.053 13.7333 104.013 13.84C103.987 13.9333 103.933 13.98 103.853 13.98ZM99.3333 12.4C99.6399 12.4 99.9266 12.2733 100.193 12.02C100.473 11.7533 100.78 11.4733 101.113 11.18C101.313 10.98 101.52 10.76 101.733 10.52C101.947 10.2667 102.14 10.02 102.313 9.78C102.5 9.54 102.647 9.33333 102.753 9.16C102.86 8.98667 102.913 8.87333 102.913 8.82C102.913 8.75333 102.86 8.69333 102.753 8.64C102.66 8.58667 102.547 8.54667 102.413 8.52C102.28 8.48 102.16 8.47333 102.053 8.5C101.733 8.59333 101.473 8.73333 101.273 8.92C101.087 9.10667 100.813 9.4 100.453 9.8C100.093 10.24 99.8066 10.66 99.5933 11.06C99.3799 11.46 99.2466 11.7867 99.1933 12.04C99.1533 12.28 99.1999 12.4 99.3333 12.4ZM108.18 14.36C107.447 14.36 106.88 14.1467 106.48 13.72C106.093 13.2933 105.9 12.64 105.9 11.76C105.9 11.28 105.987 10.7533 106.16 10.18C106.347 9.60667 106.587 9.04667 106.88 8.5C107.187 7.95333 107.52 7.48 107.88 7.08C108.24 6.66667 108.6 6.38 108.96 6.22C109.093 6.15333 109.233 6.10667 109.38 6.08C109.54 6.04 109.693 6.02 109.84 6.02C110 6.02 110.173 6.03333 110.36 6.06C110.56 6.07333 110.747 6.11333 110.92 6.18C111.227 6.27333 111.493 6.45333 111.72 6.72C111.96 6.98667 112.08 7.37333 112.08 7.88C112.08 8.01333 112.067 8.16 112.04 8.32C112.013 8.46667 111.967 8.61333 111.9 8.76C111.727 9.2 111.46 9.62 111.1 10.02C110.753 10.42 110.387 10.7 110 10.86C109.893 10.9133 109.787 10.9533 109.68 10.98C109.587 10.9933 109.487 11 109.38 11C109.1 11 108.847 10.96 108.62 10.88C108.407 10.8 108.207 10.6933 108.02 10.56L107.86 10.42L107.76 10.62C107.667 10.8733 107.6 11.0867 107.56 11.26C107.533 11.4333 107.52 11.56 107.52 11.64C107.52 11.8 107.527 11.9667 107.54 12.14C107.553 12.3 107.593 12.4333 107.66 12.54C107.713 12.6067 107.78 12.66 107.86 12.7C107.953 12.74 108.067 12.76 108.2 12.76C108.28 12.76 108.353 12.76 108.42 12.76C108.5 12.7467 108.567 12.7333 108.62 12.72C108.86 12.6667 109.053 12.58 109.2 12.46C109.36 12.3267 109.527 12.2133 109.7 12.12L109.78 12.08L109.76 12.02C109.987 11.9 110.14 11.8267 110.22 11.8C110.3 11.76 110.36 11.7267 110.4 11.7C110.453 11.6467 110.513 11.62 110.58 11.62C110.767 11.5933 110.947 11.6467 111.12 11.78C111.307 11.9 111.4 12.0533 111.4 12.24C111.4 12.32 111.34 12.4467 111.22 12.62C111.113 12.7933 110.973 12.9667 110.8 13.14C110.64 13.3 110.473 13.4267 110.3 13.52C110.26 13.5333 110.22 13.5533 110.18 13.58C110.14 13.5933 110.1 13.6133 110.06 13.64H110.08C109.96 13.8 109.84 13.88 109.72 13.88H109.56C109.507 13.9733 109.333 14.0733 109.04 14.18C108.747 14.3 108.46 14.36 108.18 14.36ZM109.22 9.54C109.34 9.54 109.447 9.52 109.54 9.48C109.647 9.44 109.747 9.39333 109.84 9.34C110.16 9.11333 110.367 8.82 110.46 8.46C110.553 8.1 110.52 7.82667 110.36 7.64C110.333 7.6 110.3 7.57333 110.26 7.56C110.22 7.53333 110.173 7.52 110.12 7.52C109.973 7.52 109.807 7.56667 109.62 7.66C109.447 7.75333 109.273 7.88667 109.1 8.06C108.927 8.23333 108.767 8.44 108.62 8.68L108.36 9.1C108.387 9.08667 108.407 9.08 108.42 9.08C108.447 9.06667 108.467 9.06 108.48 9.06C108.6 9.06 108.68 9.1 108.72 9.18C108.76 9.26 108.807 9.34 108.86 9.42C108.927 9.5 109.047 9.54 109.22 9.54ZM114.82 14.14C114.113 14.14 113.593 13.9133 113.26 13.46C113.167 13.2467 113.12 13.0333 113.12 12.82C113.133 12.5933 113.187 12.4333 113.28 12.34C113.373 12.2333 113.487 12.2533 113.62 12.4C113.793 12.5067 114.04 12.56 114.36 12.56C114.52 12.56 114.66 12.56 114.78 12.56C114.913 12.5467 115.067 12.5333 115.24 12.52C115.547 12.4933 115.74 12.4 115.82 12.24C115.913 12.08 115.893 11.9467 115.76 11.84H115.78C115.42 11.7467 115.067 11.6133 114.72 11.44C114.373 11.2667 114.08 11.0733 113.84 10.86C113.6 10.6333 113.46 10.42 113.42 10.22C113.313 9.78 113.34 9.32667 113.5 8.86C113.66 8.39333 113.893 7.98667 114.2 7.64C114.32 7.56 114.487 7.44667 114.7 7.3C114.913 7.14 115.067 7.05333 115.16 7.04V7.06C115.413 6.79333 115.7 6.58 116.02 6.42C116.34 6.24667 116.713 6.08667 117.14 5.94L117.46 5.9C117.62 5.87333 117.76 5.86 117.88 5.86C117.867 5.86 117.9 5.87333 117.98 5.9C118.06 5.92667 118.127 5.94667 118.18 5.96C118.26 6 118.34 6.02 118.42 6.02C118.607 6.04667 118.787 6.14667 118.96 6.32C119.147 6.48 119.293 6.67333 119.4 6.9C119.52 7.11333 119.567 7.31333 119.54 7.5C119.5 7.80667 119.387 8.11333 119.2 8.42C119.013 8.71333 118.813 8.88 118.6 8.92C118.627 8.90667 118.6 8.88 118.52 8.84C118.44 8.8 118.367 8.76 118.3 8.72L118.22 8.76C118.22 8.76 118.213 8.74 118.2 8.7C118.2 8.66 118.187 8.61333 118.16 8.56C118.107 8.46667 118.067 8.36667 118.04 8.26C118.027 8.15333 118.027 8.03333 118.04 7.9C118.067 7.75333 118.073 7.66667 118.06 7.64C118.047 7.61333 117.967 7.59333 117.82 7.58C117.647 7.54 117.427 7.56 117.16 7.64C116.893 7.70667 116.647 7.82667 116.42 8C116.153 8.17333 115.953 8.31333 115.82 8.42C115.7 8.52667 115.607 8.63333 115.54 8.74C115.473 8.83333 115.4 8.97333 115.32 9.16C115.267 9.25333 115.22 9.34 115.18 9.42C115.14 9.48667 115.12 9.55333 115.12 9.62C115.12 9.75333 115.233 9.89333 115.46 10.04C115.687 10.1733 116.027 10.3333 116.48 10.52C116.84 10.6667 117.073 10.8667 117.18 11.12C117.3 11.3733 117.407 11.6133 117.5 11.84C117.527 11.8933 117.553 11.9933 117.58 12.14C117.62 12.2733 117.627 12.3533 117.6 12.38C117.627 12.4067 117.64 12.4333 117.64 12.46V12.44C117.747 12.64 117.727 12.8533 117.58 13.08C117.447 13.2933 117.233 13.4933 116.94 13.68C116.647 13.8533 116.313 13.98 115.94 14.06H115.96C115.76 14.0867 115.56 14.1067 115.36 14.12C115.173 14.1333 114.993 14.14 114.82 14.14Z" fill="black"/>
</svg>
